<?xml version="1.0" encoding="iso-8859-1"?>
<!-- Generator: Adobe Illustrator 19.0.0, SVG Export Plug-In . SVG Version: 6.00 Build 0)  -->
<svg version="1.1" id="Capa_1" xmlns="http://www.w3.org/2000/svg" xmlns:xlink="http://www.w3.org/1999/xlink" x="0px" y="0px"
	 viewBox="0 0 512 512" style="enable-background:new 0 0 512 512;" xml:space="preserve">
<g>
	<g>
		<path d="M45,346v44.822l-45,29v18.356l45,29V512h467V346H45z M233.5,444h-30v-30h30V444z M293.5,444h-30v-30h30V444z M353.5,444
			h-30v-30h30V444z"/>
	</g>
</g>
<g>
	<g>
		<path d="M45,150v44.822l-45,29v18.356l45,29V316h467V150H45z M233.5,248h-30v-30h30V248z M293.5,248h-30v-30h30V248z M353.5,248
			h-30v-30h30V248z"/>
	</g>
</g>
<g>
	<g>
		<rect x="392" width="120" height="120"/>
	</g>
</g>
<g>
	<g>
		<path d="M0,0v120h362V0H0z M317,75H45V45h272V75z"/>
	</g>
</g>
<g>
</g>
<g>
</g>
<g>
</g>
<g>
</g>
<g>
</g>
<g>
</g>
<g>
</g>
<g>
</g>
<g>
</g>
<g>
</g>
<g>
</g>
<g>
</g>
<g>
</g>
<g>
</g>
<g>
</g>
</svg>
